<svg width="200" height="200" viewBox="0 0 200 200" fill="none" xmlns="http://www.w3.org/2000/svg">
<path d="M14.709 148.74V61.25L44.269 78.83V166.32L14.709 148.74Z" fill="#4AC0EE"></path>
<path d="M71.829 117.98V84.8203L99.799 100.4V133.56L71.829 117.98Z" fill="#4AC0EE"></path>
<path d="M71.829 181.9V148.74L99.799 166.32V199.08L71.829 181.9Z" fill="#4AC0EE"></path>
<path d="M128.959 85.2202L99.799 100.4V133.56L128.959 118.38V85.2202Z" fill="#3F96D2"></path>
<path d="M99.799 199.88V165.92L156.129 131.96V68.0401L185.289 50.0601V148.34L99.799 199.87V199.88Z" fill="#3F96D2"></path>
<path d="M99.799 0.120117L30.689 41.6701L59.449 59.2501L99.799 34.8801L156.129 68.0401L185.289 50.0601L99.799 0.120117Z" fill="#2078BD"></path>
<path d="M99.799 69.6401L71.839 84.8201L99.799 100.8L128.959 85.2201L99.799 69.6401Z" fill="#2078BD"></path>
</svg>